# xmcd
#
# Track frame offsets:
#	150
#	31117
#	50003
#	65976
#	79266
#	102767
#	116562
#	134791
#	168207
#	193468
#	205357
#
# Disc length: 3071 seconds
#
# Revision: 4
# Processed by: cddbd v1.5.2PL0 Copyright (c) Steve Scherf et al.
# Submitted via: EasyCDDAExtractor 2010.6.0.0
#
DISCID=a80bfd0b
DTITLE=Vladimir Vysotsky - 16 Интервью
DYEAR=2002
DGENRE=Vocal
TTITLE0=Гербарий
TTITLE1=Я из дела ушёл
TTITLE2=Вот - главный вход...
TTITLE3=Песня о сумасшедшем доме
TTITLE4=Летела жизнь
TTITLE5=Реальней сновидения и бреда...
TTITLE6=Песня о Судьбе
TTITLE7=Интервью корреспонденту Телевидения ФРГ
TTITLE8=Инструкция перед поездкой за рубеж,или пол часа в месткоме
TTITLE9=Ноль семь
TTITLE10=Через десять лет
EXTD=
EXTT0=
EXTT1=
EXTT2=
EXTT3=
EXTT4=
EXTT5=
EXTT6=
EXTT7=
EXTT8=
EXTT9=
EXTT10=
PLAYORDER=
